<?xml version="1.0" standalone="no"?>
<!DOCTYPE svg PUBLIC "-//W3C//DTD SVG 1.1//EN" "http://www.w3.org/Graphics/SVG/1.1/DTD/svg11.dtd" >
<svg xmlns="http://www.w3.org/2000/svg">
<metadata></metadata>
<defs>
<font id="fedra_sans_book" horiz-adv-x="1673" >
<font-face units-per-em="2048" ascent="1638" descent="-410" />
<missing-glyph horiz-adv-x="614" />
<glyph horiz-adv-x="2048" />
<glyph horiz-adv-x="2048" />
<glyph unicode="&#xd;" horiz-adv-x="614" />
<glyph unicode=" "  horiz-adv-x="614" />
<glyph unicode="&#x09;" horiz-adv-x="614" />
<glyph unicode="&#xa0;" horiz-adv-x="614" />
<glyph unicode="!" horiz-adv-x="567" d="M205 0v158h157v-158h-157zM205 348v1100h157v-1100h-157z" />
<glyph unicode="&#x22;" horiz-adv-x="712" d="M102 1546h158l-16 -491h-125zM453 1546h157l-16 -491h-125z" />
<glyph unicode="#" horiz-adv-x="1212" d="M82 328v137h188l29 518h-217v137h225l19 328h157l-18 -328h328l18 328h158l-19 -328h180v-137h-188l-29 -518h217v-137h-225l-18 -328h-158l19 328h-328l-19 -328h-157l18 328h-180zM428 465h328l28 518h-327z" />
<glyph unicode="$" horiz-adv-x="1118" d="M102 66l56 135q182 -84 344 -84q152 0 241 55q104 63 105 195q0 147 -182 249q-170 86 -342 172q-182 123 -183 326q0 154 103 244q92 84 250 100l-5 180h156l-4 -178q186 -10 287 -61l-54 -129q-123 53 -301 53q-279 0 -278 -203q0 -131 186 -233l348 -180 q187 -129 187 -328q0 -166 -107 -268q-98 -96 -268 -123l6 -191h-158l5 180q-137 2 -267 39q-86 25 -125 50z" />
<glyph unicode="%" horiz-adv-x="1599" d="M92 1116q0 162 96 258q88 88 222 88q319 1 319 -329q0 -160 -98 -252q-90 -86 -228 -86q-311 0 -311 321zM186 211l1092 1089l96 -94l-1091 -1091zM233 1116q0 -209 170 -209q84 0 134.5 61t50.5 165q0 217 -178 217q-78 0 -125 -56q-51 -61 -52 -178zM870 299 q0 162 97 258q88 88 221 88q319 0 319 -330q0 -160 -98 -252q-90 -86 -227 -86q-311 0 -312 322zM1012 299q0 -209 170 -209q84 0 134 60.5t50 164.5q0 217 -178 217q-78 0 -125 -55q-51 -61 -51 -178z" />
<glyph unicode="&#x26;" horiz-adv-x="1368" d="M98 334q0 227 242 442q-61 178 -61 352q0 125 73 220q90 115 250 114q289 0 289 -274q0 -102 -123 -227q-20 -20 -254 -220q119 -264 362.5 -435t507.5 -181l-10 -137q-264 0 -508 143q-182 -152 -377 -151q-391 0 -391 354zM244 350q0 -229 250 -229q133 0 260 86 q-227 172 -357 432q-154 -154 -153 -289zM426 1147q0 -141 37 -270q154 119 172 135q108 100 108 170q0 68 -42 105.5t-107 37.5q-168 0 -168 -178z" />
<glyph unicode="'" horiz-adv-x="362" d="M102 1546h158l-16 -491h-125z" />
<glyph unicode="(" horiz-adv-x="722" d="M123 584q0 442 223 762q92 133 221 229l95 -107q-111 -90 -191 -211q-190 -287 -190 -671q0 -387 190 -699q80 -131 191 -235l-95 -107q-129 111 -221 254q-223 342 -223 785z" />
<glyph unicode=")" horiz-adv-x="722" d="M61 -348q111 104 191 235q190 311 190 699q0 385 -190 671q-80 121 -191 211l95 107q129 -96 223 -229q221 -320 221 -762t-221 -785q-94 -143 -223 -254z" />
<glyph unicode="*" horiz-adv-x="874" d="M88 1077l205 90l45 -80l-182 -133zM88 1317l70 123l182 -133l-47 -82zM365 836l24 223h94l23 -223h-141zM367 1561h141l-23 -226h-94zM535 1085l47 82l204 -88l-71 -125zM535 1307l182 133l69 -121l-206 -90z" />
<glyph unicode="+" horiz-adv-x="958" d="M82 653v142h321v323h158v-323h316v-142h-316v-323h-158v323h-321z" />
<glyph unicode="," horiz-adv-x="614" d="M190 -250q53 137 54 217v193h159v-80q0 -152 -98 -330h-115z" />
<glyph unicode="-" horiz-adv-x="733" d="M61 518v141h611v-141h-611z" />
<glyph unicode="." horiz-adv-x="614" d="M213 0v188h188v-188h-188z" />
<glyph unicode="/" horiz-adv-x="1081" d="M0 -299l961 1841l120 -69l-960 -1842z" />
<glyph unicode="0" horiz-adv-x="1282" d="M123 700q0 760 541 760q283 0 401 -219q94 -170 94 -496q0 -764 -530 -763q-506 0 -506 718zM285 709q0 -596 354 -596q219 0 301 200q57 137 57 420q0 258 -55 393q-80 203 -291 203q-221 0 -307 -209q-59 -141 -59 -411z" />
<glyph unicode="1" horiz-adv-x="692" d="M0 1313v123l446 12v-1448h-155v1313h-291z" />
<glyph unicode="2" horiz-adv-x="993" d="M20 0v133q98 90 197 180q201 190 320 346q166 219 165 361q0 305 -264 305q-190 0 -299 -84l-73 111q137 113 385 112q414 0 413 -413q0 -225 -194 -469q-115 -145 -449 -449h731v-133h-932z" />
<glyph unicode="3" horiz-adv-x="1021" d="M61 39l35 139q184 -61 318 -61q152 0 227 45q104 59 104 211q0 137 -114 223q-106 82 -283 94v121q135 10 234.5 97t99.5 204q0 215 -254 215q-154 0 -242 -41l-53 113q113 70 313 69q174 0 277 -79q111 -88 111 -248q0 -158 -113 -275q-74 -76 -141 -98 q327 -102 327 -383q0 -408 -473 -408q-223 0 -373 62z" />
<glyph unicode="4" horiz-adv-x="1134" d="M41 389v141l567 918h232v-926h254v-133h-254v-387h-156v387h-643zM193 522h491v805z" />
<glyph unicode="5" horiz-adv-x="1091" d="M143 18q12 49 35 142q104 -29 105 -29q70 -12 209 -12q141 0 232 80t91 213q0 156 -92 237q-82 72 -223 72q-166 0 -314 -16v741h752v-133h-606v-459q37 0 103.5 2t94.5 2q203 0 323 -112.5t120 -311.5q0 -217 -132 -337t-347 -120q-223 0 -351 41z" />
<glyph unicode="6" horiz-adv-x="1183" d="M123 618q0 414 180 637q168 207 453 207q123 0 192 -28l-33 -129q-31 18 -163 18q-471 0 -471 -719q0 -260 67 -371q78 -127 273 -127q131 0 208 99q74 92 74 233q0 152 -80 234t-211 82q-96 0 -168 -13l-14 129q80 18 197 19q201 0 317.5 -119t116.5 -309 q0 -231 -135 -365q-127 -123 -320 -123q-244 0 -354 131q-129 150 -129 514z" />
<glyph unicode="7" horiz-adv-x="884" d="M0 1315v133h874v-137l-636 -1342l-132 66l609 1280h-715z" />
<glyph unicode="8" horiz-adv-x="1150" d="M115 319q0 147 84 250q61 76 202 160l52 31l-50 35q-121 86 -167 141q-70 88 -70 201q0 326 430 325q195 0 307 -88q104 -84 105 -213q0 -207 -279 -381l-33 -20l60 -37q293 -183 293 -373q0 -371 -476 -370q-459 0 -458 339zM266 338q0 -223 320 -223q303 -1 303 241 q0 125 -223 269l-97 61l-80 -51q-223 -143 -223 -297zM313 1137q0 -119 199 -260l63 -46l54 35q111 72 151 117q62 68 62 152q0 201 -246 200q-283 0 -283 -198z" />
<glyph unicode="9" horiz-adv-x="1179" d="M123 987q0 223 129 352q125 123 328 123q217 0 344 -166q133 -172 133 -485q0 -467 -191 -666q-160 -168 -483 -168q-100 0 -170 25q10 29 33 129q57 -20 151 -20q317 0 424 225q68 147 68 502q0 197 -74 331q-88 158 -250 158q-131 0 -205.5 -89t-74.5 -226 q0 -354 286 -355q82 0 144 15l24 -129q-76 -23 -198 -23q-201 0 -312 133q-106 125 -106 334z" />
<glyph unicode=":" horiz-adv-x="614" d="M213 0v188h188v-188h-188zM213 934v188h188v-188h-188z" />
<glyph unicode=";" horiz-adv-x="614" d="M178 -250q53 137 53 217v193h160v-80q0 -152 -98 -330h-115zM213 934v188h188v-188h-188z" />
<glyph unicode="&#x3c;" horiz-adv-x="897" d="M61 623v202l775 326v-147l-668 -281l668 -279v-147z" />
<glyph unicode="=" horiz-adv-x="958" d="M82 449v141h795v-141h-795zM82 858v141h795v-141h-795z" />
<glyph unicode="&#x3e;" horiz-adv-x="897" d="M61 297v147l670 279l-670 281v147l775 -326v-202z" />
<glyph unicode="?" horiz-adv-x="841" d="M184 1317l31 135q209 -16 342 -109q158 -108 158 -301q0 -106 -82 -217l-156 -172q-82 -96 -82 -176q0 -59 11 -106l-142 -37q-25 80 -24 145q0 117 82 226q76 82 154.5 167.5t78.5 157.5q0 127 -115 205q-100 66 -256 82zM262 0v158h160v-158h-160z" />
<glyph unicode="@" horiz-adv-x="1601" d="M111 537q0 483 249 720q215 207 588 207q543 1 543 -583q0 -295 -148 -453q-125 -133 -307 -133q-152 0 -145 143q-41 -51 -115 -94t-125 -43q-96 0 -139 53q-53 63 -53 219q0 205 109.5 328t289.5 123q115 0 215 -45l-53 -467q-10 -94 29 -94q299 0 299 461 q0 465 -408 464q-293 0 -471 -174q-209 -203 -209 -612q0 -569 502 -569q143 0 303 32l31 -116q-141 -51 -355 -51q-311 0 -470.5 178t-159.5 506zM602 600q0 -102 10 -129q12 -37 64 -37q102 0 211 121l41 340q-18 10 -74 12q-252 6 -252 -307z" />
<glyph unicode="A" horiz-adv-x="1370" d="M20 0l570 1448h258l502 -1448h-172l-189 545h-594l-211 -545h-164zM446 676h498l-233 678z" />
<glyph unicode="B" horiz-adv-x="1355" d="M246 0v1448h395q467 0 467 -356q0 -238 -201 -318v-6q68 0 154 -55q151 -94 151 -301q0 -412 -510 -412h-456zM412 135h254q178 0 266 51q110 64 110 220q0 164 -122 225q-100 49 -334 49h-174v-545zM412 811h202q324 0 324 256q0 139 -83 196.5t-259 57.5h-184v-510z " />
<glyph unicode="C" horiz-adv-x="1325" d="M123 715q0 346 194.5 547.5t544.5 201.5q256 0 418 -69l-47 -133q-166 57 -367 57q-250 0 -399 -133q-174 -152 -174 -451t182 -463q164 -147 432 -147q211 0 330 45l47 -135q-166 -55 -414 -55q-348 0 -553 210q-195 201 -194 525z" />
<glyph unicode="D" horiz-adv-x="1548" d="M246 0v1450h385q369 0 577 -172q228 -187 228 -549q0 -367 -215 -553q-203 -176 -578 -176h-397zM408 135h258q287 0 446.5 145.5t159.5 426.5q0 301 -178 458q-168 147 -469 148h-217v-1178z" />
<glyph unicode="E" horiz-adv-x="1202" d="M246 0v1448h807v-133h-643v-520h598v-136h-598v-524h690v-135h-854z" />
<glyph unicode="F" horiz-adv-x="1155" d="M246 0v1448h848v-133h-684v-561h639v-136h-639v-618h-164z" />
<glyph unicode="G" horiz-adv-x="1439" d="M113 715q0 346 194.5 547.5t544.5 201.5q256 0 418 -69l-47 -133q-166 57 -367 57q-250 0 -399 -133q-174 -152 -174 -451t182 -463q164 -147 432 -147q139 0 236 18v465h163v-567q-205 -61 -436 -61q-348 0 -553 210q-195 201 -194 525z" />
<glyph unicode="H" horiz-adv-x="1617" d="M246 0v1448h164v-653h798v653h164v-1448h-164v659h-798v-659h-164z" />
<glyph unicode="I" horiz-adv-x="655" d="M246 0v1448h164v-1448h-164z" />
<glyph unicode="J" horiz-adv-x="655" d="M-53 -262q178 98 241 229q55 117 56 342v1139h164v-1135q0 -252 -78 -409q-94 -190 -314 -287z" />
<glyph unicode="K" horiz-adv-x="1292" d="M246 0v1448h164v-1448h-164zM461 750v36l579 662h207l-602 -670l647 -778h-219z" />
<glyph unicode="L" horiz-adv-x="1038" d="M246 0v1448h164v-1307h628v-141h-792z" />
<glyph unicode="M" horiz-adv-x="2000" d="M246 0v1448h266l469 -1354l526 1354h248v-1448h-164l8 1284l-497 -1284h-260l-445 1284l13 -137v-1147h-164z" />
<glyph unicode="N" horiz-adv-x="1634" d="M246 0v1448h254l745 -1356l-20 215v1141h164v-1448h-269l-725 1317l15 -170v-1147h-164z" />
<glyph unicode="O" d="M113 727q0 342 204.5 542.5t540.5 200.5q338 0 526 -213q177 -202 177 -534q0 -338 -199 -543t-543 -205q-330 0 -522 211q-184 203 -184 541zM281 729q0 -260 137 -428q147 -184 407 -184q276 0 428 176q138 162 138 432q0 264 -144 430q-150 172 -407 172 q-268 0 -418 -172q-141 -162 -141 -426z" />
<glyph unicode="P" horiz-adv-x="1224" d="M246 0v1448h471q467 0 467 -440q0 -205 -140 -324q-150 -131 -434 -131h-39v135l52 2q186 8 278 70q109 76 109 237q0 166 -82 242t-256 76h-260v-1315h-166z" />
<glyph unicode="Q" d="M113 727q0 342 204.5 542.5t540.5 200.5q338 0 526 -213q177 -202 177 -534q0 -338 -199 -543t-543 -205q-330 0 -522 211q-184 203 -184 541zM281 729q0 -260 137 -428q147 -184 407 -184q276 0 428 176q138 162 138 432q0 264 -144 430q-150 172 -407 172 q-268 0 -418 -172q-141 -162 -141 -426zM807 -68q143 0 328 -61q178 -59 284 -59h185v-140h-185q-139 0 -321.5 66.5t-290.5 66.5v127z" />
<glyph unicode="R" horiz-adv-x="1441" d="M246 0v1448h471q467 0 467 -440q0 -301 -287 -410l225 -272q70 -84 160 -146q74 -49 123 -63l-35 -140q-176 10 -346 220l-295 364q-49 -8 -119 -8h-198v-553h-166zM412 690h211q387 0 387 307q0 166 -82 242t-256 76h-260v-625z" />
<glyph unicode="S" horiz-adv-x="1159" d="M123 66l55 135q182 -84 344 -84q152 0 242 55q104 63 104 195q0 147 -182 249q-170 86 -342 172q-182 123 -182 326q0 170 127 264q115 84 299 84q233 0 360 -63l-53 -129q-123 53 -301 53q-279 0 -279 -203q0 -131 187 -233l348 -180q186 -129 186 -328t-149 -305 q-135 -96 -361 -97q-141 0 -274 37q-94 27 -129 52z" />
<glyph unicode="T" horiz-adv-x="1155" d="M0 1309v139h1155v-139h-496v-1309h-163v1309h-496z" />
<glyph unicode="U" horiz-adv-x="1603" d="M225 492v956h168v-942q0 -389 414 -389t414 438v893h157v-901q0 -313 -190 -461q-145 -113 -381 -113q-582 0 -582 519z" />
<glyph unicode="V" horiz-adv-x="1323" d="M0 1448h172l469 -1354l61 160l463 1194h158l-563 -1448h-258z" />
<glyph unicode="W" horiz-adv-x="2064" d="M20 1448h166l369 -1356l115 291l284 700l-125 365h168l453 -1356l440 1356h154l-477 -1448h-240l-229 655l-78 244l-90 -237l-260 -662h-244z" />
<glyph unicode="X" horiz-adv-x="1236" d="M12 0l531 797l-402 651h181l319 -533l332 533h178l-432 -662l491 -786h-186l-401 664l-424 -664h-187z" />
<glyph unicode="Y" horiz-adv-x="1161" d="M4 1448h184l375 -752l402 752h176l-502 -887v-561h-164v561z" />
<glyph unicode="Z" horiz-adv-x="1116" d="M61 0v143l766 1164h-712v141h897v-129l-774 -1178h817v-141h-994z" />
<glyph unicode="[" horiz-adv-x="710" d="M205 -451v1995h362v-133h-205v-1728h205v-134h-362z" />
<glyph unicode="\" horiz-adv-x="1089" d="M16 1473l121 69l961 -1841l-121 -70z" />
<glyph unicode="]" horiz-adv-x="710" d="M143 -317h205v1728h-205v133h363v-1995h-363v134z" />
<glyph unicode="^" horiz-adv-x="1110" d="M135 602l318 846h231l299 -846h-170l-244 735l-272 -735h-162z" />
<glyph unicode="_" horiz-adv-x="1024" d="M0 -199h1024v-141h-1024v141z" />
<glyph unicode="a" horiz-adv-x="1173" d="M92 299q0 324 428 334l268 6v156q0 133 -69 178q-57 37 -219 37q-63 0 -158 -23q-59 -16 -117 -31l-32 123q152 66 352 66q393 0 393 -299v-625q0 -106 104 -106l-10 -127q-16 -1 -31 -1q-70 0 -122 23q-84 35 -91 121q-61 -43 -124 -86q-113 -61 -256 -61 q-150 0 -233 81.5t-83 233.5zM242 313q0 -200 200 -200h2h2q115 0 342 151v254l-266 -14q-281 -14 -280 -191z" />
<glyph unicode="b" horiz-adv-x="1247" d="M205 29v1517h155v-1409q133 -20 236 -20q178 0 276 123q90 115 91 311q0 207 -58 311q-76 135 -262 135q-53 0 -119 -18l-37 119q68 32 178 32h7q215 0 333.5 -143t118.5 -395q0 -326 -161 -479q-137 -129 -373 -129q-156 0 -271 20q-57 12 -114 25z" />
<glyph unicode="c" horiz-adv-x="1034" d="M123 571q0 268 144.5 422t385.5 154q193 -1 299 -64l-61 -122q-117 53 -262 53q-340 0 -340 -449q0 -240 86 -338q93 -108 334 -108h4q27 0 213 26l22 -125q-143 -38 -249 -38h-5q-311 0 -441 136t-130 453z" />
<glyph unicode="d" horiz-adv-x="1241" d="M123 555q0 272 156 428q145 145 372 145q119 0 228 -30v446h157v-1544h-157v102q-140 -118 -287 -118h-2q-467 0 -467 571zM279 549q0 -432 321 -432q101 0 279 131v719q-71 22 -221 22h-13q-190 0 -285 -131q-82 -115 -81 -309z" />
<glyph unicode="e" horiz-adv-x="1126" d="M123 539q0 606 498 606q403 0 403 -557v-58h-743q6 -244 125 -337q92 -74 292 -74q180 0 275 33l28 -132q-29 -12 -139 -24q-119 -14 -213 -14q-260 0 -385 118q-141 133 -141 439zM283 651h573q0 176 -66.5 274.5t-193.5 98.5q-129 0 -211 -92q-88 -98 -102 -281z" />
<glyph unicode="f" horiz-adv-x="694" d="M53 987v131h164v99q0 370 422 370h2q47 0 131 -16q73 -15 98 -25l-28 -125q-123 27 -205 27q-268 0 -268 -234v-96h243v-131h-243v-1438h-152v1438h-164z" />
<glyph unicode="g" horiz-adv-x="1241" d="M123 555q0 270 156 426q145 143 372 143q147 0 385 -39v-1157q0 -203 -147 -309q-127 -92 -318 -92q-193 0 -358 47l23 123q143 -33 290 -33q172 0 252 53q102 68 103 244v119q-127 -96 -267 -96q-219 0 -333 96q-158 135 -158 475zM279 549q0 -432 346 -432h2 q116 0 252 112v744q-111 16 -230 16q-193 0 -287 -131q-84 -115 -83 -309z" />
<glyph unicode="h" horiz-adv-x="1294" d="M205 0v1544h157v-547q139 88 152 97q109 53 238 53q219 0 299 -141q51 -90 51 -283v-723h-156v690q0 156 -39 225q-53 94 -194 95q-111 0 -351 -150v-860h-157z" />
<glyph unicode="i" horiz-adv-x="677" d="M205 1466l133 133l135 -133l-135 -135zM260 0v1118h158v-1118h-158z" />
<glyph unicode="j" horiz-adv-x="681" d="M-96 -428l30 131q59 -14 115 -14q121 0 170 75q43 66 43 203v1151h158v-1153q0 -416 -375 -416q-78 0 -141 23zM207 1466l133 133l135 -133l-135 -135z" />
<glyph unicode="k" horiz-adv-x="1155" d="M225 0v1544h158v-1544h-158zM422 590l481 528h184l-479 -522l232 -287q137 -170 264 -209l-27 -120q-174 10 -332 206z" />
<glyph unicode="l" horiz-adv-x="567" d="M205 0v1544h157v-1544h-157z" />
<glyph unicode="m" horiz-adv-x="1974" d="M205 0v1118h157v-121q68 47 138 97q94 53 221 53q236 0 309 -160q80 49 158 100q117 59 244 60q219 0 299 -141q51 -92 51 -283v-723h-158v690q0 158 -39 225q-51 94 -192 95q-121 0 -330 -144q8 -63 8 -143v-723h-156v690q0 156 -38 225q-53 94 -195 95q-82 0 -190 -64 q-63 -43 -130 -86v-860h-157z" />
<glyph unicode="n" horiz-adv-x="1294" d="M205 0v1118h157v-121q139 88 152 97q109 53 238 53q219 0 299 -141q51 -90 51 -283v-723h-156v690q0 156 -39 225q-53 94 -194 95q-111 0 -351 -150v-860h-157z" />
<glyph unicode="o" horiz-adv-x="1255" d="M123 547q0 283 145 444q137 156 365 156q500 0 500 -588q0 -283 -150 -438q-139 -145 -369 -146q-231 0 -361 149.5t-130 422.5zM283 557q0 -451 348 -451q338 0 338 453q0 190 -66 307q-88 152 -276 152q-186 0 -275 -150q-69 -119 -69 -306v-5z" />
<glyph unicode="p" horiz-adv-x="1247" d="M205 -451v1569h155v-84q137 96 312 96q215 0 333.5 -143t118.5 -395q0 -326 -161 -479q-137 -129 -373 -129q-143 0 -228 12v-447h-157zM362 137q129 -20 234 -20q178 0 276 123q91 114 91 311q0 207 -60 313q-78 137 -264 137q-131 0 -277 -102v-762z" />
<glyph unicode="q" horiz-adv-x="1241" d="M123 555q0 270 156 426q145 143 372 143q201 0 385 -51v-1524h-157v496q-113 -61 -281 -61q-207 0 -317 96q-158 137 -158 475zM279 549q0 -432 329 -432q165 0 271 63v783q-104 22 -220 22h-10q-193 0 -287 -129q-84 -115 -83 -307z" />
<glyph unicode="r" horiz-adv-x="817" d="M205 0v1118h157v-149q41 70 130.5 120t189.5 50q86 -1 129 -15l-27 -153q-43 16 -131 16q-182 0 -291 -170v-817h-157z" />
<glyph unicode="s" horiz-adv-x="970" d="M113 27l22 137q158 -47 293 -47q131 0 207 45t76 125q0 109 -146 172q-135 57 -272 114q-145 88 -146 256q0 150 109 234q100 80 270 80q164 0 271 -43l-31 -129q-158 41 -256 41q-207 0 -207 -158q0 -111 146 -182q135 -59 270 -121q145 -90 145 -244q0 -174 -135 -260 q-107 -67 -267 -67h-5q-102 0 -217 18q-96 14 -127 29z" />
<glyph unicode="t" horiz-adv-x="862" d="M82 985v133h164v230h155v-230h347v-133h-347v-678q0 -123 42 -157.5t173 -34.5q82 0 172 24l29 -127q-98 -35 -196 -35q-197 0 -267 41q-109 68 -108 287v680h-164z" />
<glyph unicode="u" horiz-adv-x="1294" d="M193 403v715h155v-682q0 -160 35 -227q49 -96 190 -96q115 0 365 155v850h152v-1118h-152v131q-129 -82 -166 -98q-119 -57 -237 -58q-209 0 -289 144q-53 96 -53 284z" />
<glyph unicode="v" horiz-adv-x="1069" d="M41 1118h172l307 -1005l80 237l264 768h164l-391 -1118h-231z" />
<glyph unicode="w" horiz-adv-x="1826" d="M41 1118h172l307 -1005l62 215l221 790h229l246 -1005l344 1005h164l-391 -1118h-232l-215 827l-35 170l-39 -168l-237 -829h-231z" />
<glyph unicode="x" horiz-adv-x="1054" d="M51 0l398 573l-369 545h174l274 -426l279 426h170l-369 -545l400 -573h-187l-293 453l-295 -453h-182z" />
<glyph unicode="y" horiz-adv-x="1069" d="M41 1118h172l307 -1003l344 1003h164l-549 -1567h-153l153 449h-73z" />
<glyph unicode="z" horiz-adv-x="1015" d="M82 0v137l663 844h-610v137h791v-129l-672 -852h680v-137h-852z" />
<glyph unicode="{" horiz-adv-x="739" d="M102 487v144q90 0 144 63q49 57 41 131l-43 422q-16 162 104 248q106 78 287 78h43v-127h-49q-244 0 -221 -209l43 -393q2 -23 2 -41q0 -190 -199 -238v-6q199 -47 199 -235q0 -20 -2 -41l-43 -396q-23 -205 221 -204h49v-134h-43q-393 0 -393 289q0 23 2 49l43 408 q8 70 -39 127q-53 66 -146 65z" />
<glyph unicode="|" horiz-adv-x="567" d="M205 -451v1995h157v-1995h-157z" />
<glyph unicode="}" horiz-adv-x="739" d="M61 -317h48q246 0 223 204l-43 396q-2 23 -2 43q0 186 198 233v6q-199 47 -198 236q0 20 2 43l43 393q23 209 -223 209h-48v127h43q180 0 287 -78q119 -86 103 -248l-43 -422q-8 -74 43 -131q53 -63 143 -63v-144q-92 0 -145 -65q-49 -57 -41 -127l43 -408q2 -27 2 -49 q0 -289 -392 -289h-43v134z" />
<glyph unicode="~" horiz-adv-x="1099" d="M61 752q123 111 271 110q106 0 228 -62.5t206 -62.5q90 0 178 68l94 -98q-127 -123 -272 -123q-111 0 -243 61.5t-204 61.5q-90 0 -184 -62z" />
<glyph unicode="&#xa1;" horiz-adv-x="567" d="M205 -332v1102h157v-1102h-157zM205 958v160h157v-160h-157z" />
<glyph unicode="&#xa2;" horiz-adv-x="1013" d="M102 780q0 248 114 397.5t319 174.5l-5 194h156l-4 -192q139 -11 229 -62l-61 -123q-117 53 -262 54q-319 0 -320 -449q0 -244 76 -338q86 -109 328 -108q27 0 213 26l22 -125q-117 -35 -225 -39l6 -188h-158l7 195q-240 23 -338 161q-96 133 -97 422z" />
<glyph unicode="&#xa3;" horiz-adv-x="946" d="M59 518v141h207q2 37 2 383q0 270 199 361q88 39 319 51l13 -143q-199 -16 -250 -41q-115 -55 -115 -236q0 -236 -10 -375h371v-141h-383q-31 -272 -129 -379h663v-139h-856v139q76 27 125 180q31 98 41 199h-197z" />
<glyph unicode="&#xa4;" horiz-adv-x="1212" d="M0 457v141h160q-6 55 -6 117q0 70 6 131h-160v141h182q115 477 586 477q156 0 262 -30q14 -4 96 -39l-47 -133q-166 57 -307 57q-319 0 -418 -332h506v-141h-532q-4 -70 -4 -111q0 -80 8 -137h528v-141h-495q117 -332 448 -332q152 0 270 45l47 -135q-166 -55 -354 -55 q-238 0 -391 133q-143 123 -201 344h-184z" />
<glyph unicode="&#xa5;" horiz-adv-x="1304" d="M82 1448h192l373 -750l400 750h176l-447 -789h391v-141h-446v-190h446v-142h-446v-186h-164v186h-424v142h424v190h-424v141h365z" />
<glyph unicode="&#xa7;" horiz-adv-x="868" d="M106 717q0 158 150 266q-51 88 -51 188q0 133 89 213t263 86l29 -131q-221 -35 -221 -141q0 -86 57 -174l274 -422q64 -98 64 -268q0 -147 -150 -256q53 -92 47 -211q-14 -285 -421 -301l-13 131q274 31 275 168q0 106 -62 203l-258 407q-72 113 -72 242zM258 727 q0 -80 47 -154l234 -368q59 41 63 131q6 117 -41 190l-227 353q-76 -55 -76 -152z" />
<glyph unicode="&#xa9;" d="M113 727q0 340 206 545q203 199 539 198q338 0 526 -215q177 -200 177 -532q0 -338 -199 -543t-543 -205q-330 0 -522 211q-184 203 -184 541zM248 729q0 -270 143 -444q158 -190 434 -191q293 0 453 182q147 168 147 449q0 276 -151 446q-160 180 -434 181 q-285 0 -443 -178q-150 -168 -149 -445zM432 750q0 199 117 315.5t325 116.5q141 0 244 -56l-37 -98q-100 37 -204 37q-135 0 -215 -70q-92 -80 -93 -233q0 -156 99 -242q88 -76 233 -76q80 0 191 33l34 -102q-154 -49 -247 -49q-207 0 -330 123q-117 117 -117 301z" />
<glyph unicode="&#xaa;" horiz-adv-x="856" d="M123 600v119h610v-119h-610zM141 981q0 197 289 203l115 2v71q0 72 -45 93q-27 12 -107 12q-49 0 -170 -33l-26 94q96 43 223 43q244 0 244 -180v-348q0 -41 63 -37l-10 -106q-141 -10 -166 67q-96 -70 -211 -69q-199 0 -199 188zM260 989q0 -96 100 -96q58 0 185 78v116 l-137 -8q-147 -8 -148 -90z" />
<glyph unicode="&#xab;" horiz-adv-x="894" d="M88 557l217 451l125 -45l-178 -406l176 -399l-123 -52zM457 557l217 451l125 -45l-178 -406l176 -399l-123 -52z" />
<glyph unicode="&#xac;" horiz-adv-x="960" d="M82 653v142h795v-465h-156v323h-639z" />
<glyph unicode="&#xad;" horiz-adv-x="733" d="M61 518v141h611v-141h-611z" />
<glyph unicode="&#xae;" d="M113 727q0 340 206 545q203 199 539 198q338 0 526 -215q177 -200 177 -532q0 -338 -199 -543t-543 -205q-330 0 -522 211q-184 203 -184 541zM248 729q0 -270 143 -444q158 -190 434 -191q293 0 453 182q147 168 147 449q0 276 -151 446q-160 180 -434 181 q-285 0 -443 -178q-150 -168 -149 -445zM557 334v840h277q276 0 276 -261q0 -170 -154 -235q121 -145 125 -148q82 -85 156 -108l-27 -100q-119 8 -215 129l-159 198q-37 -4 -62 -4h-98v-311h-119zM676 750h106q203 -1 203 157q0 166 -176 166h-133v-323z" />
<glyph unicode="&#xb0;" horiz-adv-x="677" d="M61 1202q0 123 82 197q76 72 197 71q125 0 200.5 -71.5t75.5 -196.5q0 -123 -79.5 -196.5t-202.5 -73.5q-272 0 -273 270zM195 1202q0 -164 143 -164t143 164q0 160 -143 160t-143 -160z" />
<glyph unicode="&#xb1;" horiz-adv-x="958" d="M82 0v141h795v-141h-795zM82 653v142h321v323h158v-323h316v-142h-316v-323h-158v323h-321z" />
<glyph unicode="&#xb6;" horiz-adv-x="1224" d="M61 1008q0 440 455 440h158v-895h-158q-455 0 -455 455zM504 -428l31 127q33 -10 114 -10q121 0 172 75q43 66 43 203v1481h156v-1483q0 -416 -373 -416q-76 0 -143 23z" />
<glyph unicode="&#xb7;" horiz-adv-x="567" d="M205 649v158h157v-158h-157z" />
<glyph unicode="&#xba;" horiz-adv-x="856" d="M119 1120q0 162 88 258q84 90 223 90q307 0 307 -342q0 -162 -92 -254q-84 -86 -223 -86q-143 0 -223 88.5t-80 245.5zM123 600v119h610v-119h-610zM244 1124q0 -236 186 -235q180 -1 180 237q0 240 -182 240q-184 0 -184 -242z" />
<glyph unicode="&#xbb;" horiz-adv-x="894" d="M86 963l125 45l217 -451l-217 -451l-123 52l176 399zM455 963l125 45l217 -451l-217 -451l-123 52l176 399z" />
<glyph unicode="&#xbf;" horiz-adv-x="858" d="M207 76q0 104 84 213q76 86 153 172q84 98 84 178q0 53 -12 106l141 39q25 -74 25 -147q0 -117 -82 -223q-74 -82 -149 -164q-82 -88 -82 -162q0 -129 114 -207q98 -66 256 -82l-30 -135q-209 18 -342 111q-160 111 -160 301zM502 958v160h157v-160h-157z" />
<glyph unicode="&#xc0;" horiz-adv-x="1370" d="M20 0l570 1448h258l502 -1448h-172l-189 545h-594l-211 -545h-164zM403 1636l48 148l460 -166l-39 -117zM446 676h498l-233 678z" />
<glyph unicode="&#xc1;" horiz-adv-x="1370" d="M20 0l570 1448h258l502 -1448h-172l-189 545h-594l-211 -545h-164zM446 676h498l-233 678zM526 1618l459 166l49 -148l-471 -135z" />
<glyph unicode="&#xc2;" horiz-adv-x="1370" d="M20 0l570 1448h258l502 -1448h-172l-189 545h-594l-211 -545h-164zM315 1604l385 178l390 -180l-54 -111l-329 137l-334 -137zM446 676h498l-233 678z" />
<glyph unicode="&#xc3;" horiz-adv-x="1370" d="M20 0l570 1448h258l502 -1448h-172l-189 545h-594l-211 -545h-164zM367 1640q100 102 223 103q57 0 136 -44t116 -44q84 0 153 63l58 -100q-98 -113 -219 -113q-51 0 -132 44t-120 44q-92 0 -164 -61zM446 676h498l-233 678z" />
<glyph unicode="&#xc4;" horiz-adv-x="1370" d="M20 0l570 1448h258l502 -1448h-172l-189 545h-594l-211 -545h-164zM367 1632l120 121l121 -121l-121 -123zM446 676h498l-233 678zM809 1632l121 121l123 -121l-123 -123z" />
<glyph unicode="&#xc5;" horiz-adv-x="1370" d="M20 0l547 1393q-98 55 -98 182q0 104 74 168q68 57 166 57q92 0 159 -49q82 -59 82 -172q0 -117 -86 -176l486 -1403h-172l-189 545h-594l-211 -545h-164zM446 676h498l-233 678l-66 -166zM586 1581q0 -55 34.5 -89t90.5 -34q123 0 123 119q0 53 -37 87t-88 34 q-123 0 -123 -117z" />
<glyph unicode="&#xc6;" horiz-adv-x="1884" d="M0 0l823 1448h910v-133h-643v-520h598v-136h-598v-524h692v-135h-856v659h-383l-367 -659h-176zM616 795h310v557z" />
<glyph unicode="&#xc7;" horiz-adv-x="1314" d="M113 715q0 346 194.5 547.5t544.5 201.5q256 0 418 -69l-47 -133q-166 57 -367 57q-250 0 -399 -133q-174 -152 -174 -451t182 -463q164 -147 432 -147q211 0 330 45l47 -135q-166 -55 -414 -55q-348 0 -553 210q-195 201 -194 525zM678 -399q119 72 119 157 q0 51 -47 138h151q43 -70 43 -136q2 -160 -215 -249z" />
<glyph unicode="&#xc8;" horiz-adv-x="1202" d="M246 0v1448h807v-133h-643v-520h598v-136h-598v-524h690v-135h-854zM369 1636l47 148l461 -166l-39 -117z" />
<glyph unicode="&#xc9;" horiz-adv-x="1202" d="M246 0v1448h807v-133h-643v-520h598v-136h-598v-524h690v-135h-854zM430 1618l459 166l49 -148l-471 -135z" />
<glyph unicode="&#xca;" horiz-adv-x="1202" d="M246 0v1448h807v-133h-643v-520h598v-136h-598v-524h690v-135h-854zM266 1604l385 178l389 -180l-53 -111l-330 137l-333 -137z" />
<glyph unicode="&#xcb;" horiz-adv-x="1202" d="M246 0v1448h807v-133h-643v-520h598v-136h-598v-524h690v-135h-854zM305 1632l121 121l121 -121l-121 -123zM748 1632l120 121l123 -121l-123 -123z" />
<glyph unicode="&#xcc;" horiz-adv-x="655" d="M-16 1636l47 148l461 -166l-39 -117zM246 0v1448h164v-1448h-164z" />
<glyph unicode="&#xcd;" horiz-adv-x="655" d="M184 1618l459 166l49 -148l-471 -135zM246 0v1448h164v-1448h-164z" />
<glyph unicode="&#xce;" horiz-adv-x="655" d="M-59 1604l385 178l389 -180l-53 -111l-330 137l-334 -137zM246 0v1448h164v-1448h-164z" />
<glyph unicode="&#xcf;" horiz-adv-x="655" d="M-20 1632l120 121l121 -121l-121 -123zM246 0v1448h164v-1448h-164zM422 1632l121 121l123 -121l-123 -123z" />
<glyph unicode="&#xd1;" horiz-adv-x="1591" d="M246 0v1448h254l702 -1356l-20 215v1141h164v-1448h-269l-682 1317l15 -170v-1147h-164zM469 1640q100 102 223 103q57 0 136 -44t116 -44q84 0 154 63l57 -100q-98 -113 -219 -113q-51 0 -132 44t-120 44q-92 0 -164 -61z" />
<glyph unicode="&#xd2;" d="M113 727q0 342 204.5 542.5t540.5 200.5q338 0 526 -213q177 -202 177 -534q0 -338 -199 -543t-543 -205q-330 0 -522 211q-184 203 -184 541zM281 729q0 -260 137 -428q147 -184 407 -184q276 0 428 176q138 162 138 432q0 264 -144 430q-150 172 -407 172 q-268 0 -418 -172q-141 -162 -141 -426zM492 1636l47 148l460 -166l-38 -117z" />
<glyph unicode="&#xd3;" d="M113 727q0 342 204.5 542.5t540.5 200.5q338 0 526 -213q177 -202 177 -534q0 -338 -199 -543t-543 -205q-330 0 -522 211q-184 203 -184 541zM281 729q0 -260 137 -428q147 -184 407 -184q276 0 428 176q138 162 138 432q0 264 -144 430q-150 172 -407 172 q-268 0 -418 -172q-141 -162 -141 -426zM594 1618l459 166l49 -148l-471 -135z" />
<glyph unicode="&#xd4;" d="M113 727q0 342 204.5 542.5t540.5 200.5q338 0 526 -213q177 -202 177 -534q0 -338 -199 -543t-543 -205q-330 0 -522 211q-184 203 -184 541zM281 729q0 -260 137 -428q147 -184 407 -184q276 0 428 176q138 162 138 432q0 264 -144 430q-150 172 -407 172 q-268 0 -418 -172q-141 -162 -141 -426zM444 1604l385 178l390 -180l-54 -111l-329 137l-334 -137z" />
<glyph unicode="&#xd5;" d="M113 727q0 342 204.5 542.5t540.5 200.5q338 0 526 -213q177 -202 177 -534q0 -338 -199 -543t-543 -205q-330 0 -522 211q-184 203 -184 541zM281 729q0 -260 137 -428q147 -184 407 -184q276 0 428 176q138 162 138 432q0 264 -144 430q-150 172 -407 172 q-268 0 -418 -172q-141 -162 -141 -426zM489 1640q100 102 224 103q57 0 136 -44t116 -44q84 0 153 63l58 -100q-98 -113 -220 -113q-51 0 -132 44t-119 44q-92 0 -164 -61z" />
<glyph unicode="&#xd6;" d="M113 727q0 342 204.5 542.5t540.5 200.5q338 0 526 -213q177 -202 177 -534q0 -338 -199 -543t-543 -205q-330 0 -522 211q-184 203 -184 541zM281 729q0 -260 137 -428q147 -184 407 -184q276 0 428 176q138 162 138 432q0 264 -144 430q-150 172 -407 172 q-268 0 -418 -172q-141 -162 -141 -426zM481 1632l121 121l121 -121l-121 -123zM924 1632l120 121l123 -121l-123 -123z" />
<glyph unicode="&#xd8;" d="M63 25l199 204q-150 197 -149 498q0 342 204.5 542.5t540.5 200.5q281 0 459 -149l194 199l95 -93l-197 -202q152 -199 152 -502q0 -338 -199 -543t-543 -205q-281 0 -467 158l-194 -203zM281 729q0 -221 100 -377l821 850q-141 125 -362 125q-268 0 -418 -172 q-141 -162 -141 -426zM465 248q141 -131 360 -131q276 0 428 176q138 162 138 432q0 221 -101 375z" />
<glyph unicode="&#xd9;" horiz-adv-x="1603" d="M225 492v956h168v-942q0 -389 414 -389t414 438v893h157v-901q0 -313 -190 -461q-145 -113 -381 -113q-582 0 -582 519zM524 1636l47 148l461 -166l-39 -117z" />
<glyph unicode="&#xda;" horiz-adv-x="1603" d="M225 492v956h168v-942q0 -389 414 -389t414 438v893h157v-901q0 -313 -190 -461q-145 -113 -381 -113q-582 0 -582 519zM594 1618l459 166l49 -148l-471 -135z" />
<glyph unicode="&#xdb;" horiz-adv-x="1603" d="M225 492v956h168v-942q0 -389 414 -389t414 438v893h157v-901q0 -313 -190 -461q-145 -113 -381 -113q-582 0 -582 519zM414 1604l385 178l389 -180l-53 -111l-330 137l-334 -137z" />
<glyph unicode="&#xdc;" horiz-adv-x="1603" d="M225 492v956h168v-942q0 -389 414 -389t414 438v893h157v-901q0 -313 -190 -461q-145 -113 -381 -113q-582 0 -582 519zM453 1632l120 121l121 -121l-121 -123zM895 1632l121 121l123 -121l-123 -123z" />
<glyph unicode="&#xdf;" horiz-adv-x="1282" d="M205 -449v1620q0 233 110 330q98 86 312 86q338 0 338 -309q0 -82 -68 -172q-61 -72 -125 -143q-68 -78 -67 -134q0 -104 122 -180q113 -68 226 -133q123 -92 123 -231q0 -156 -117 -238q-96 -68 -236 -67q-201 0 -309 47l29 135q150 -45 250 -45q98 0 164.5 43t66.5 104 q0 94 -123 164q-223 129 -231 135q-123 100 -123 266q0 98 119.5 229.5t119.5 223.5q0 166 -161 166q-156 0 -215 -76q-49 -63 -50 -203v-1618h-155z" />
<glyph unicode="&#xe0;" horiz-adv-x="1173" d="M92 299q0 324 428 334l268 6v156q0 133 -69 178q-57 37 -219 37q-63 0 -158 -23q-59 -16 -117 -31l-32 123q152 66 352 66q393 0 393 -299v-625q0 -106 104 -106l-10 -127q-90 -6 -153 22q-84 35 -91 121q-61 -43 -124 -86q-113 -61 -256 -61q-150 0 -233 81.5t-83 233.5 zM242 313q0 -201 202 -200q115 -1 344 151v254l-266 -14q-281 -14 -280 -191zM338 1516l86 131l403 -281l-67 -104z" />
<glyph unicode="&#xe1;" horiz-adv-x="1173" d="M92 299q0 324 428 334l268 6v156q0 133 -69 178q-57 37 -219 37q-63 0 -158 -23q-59 -16 -117 -31l-32 123q152 66 352 66q393 0 393 -299v-625q0 -106 104 -106l-10 -127q-90 -6 -153 22q-84 35 -91 121q-61 -43 -124 -86q-113 -61 -256 -61q-150 0 -233 81.5t-83 233.5 zM242 313q0 -201 202 -200q115 -1 344 151v254l-266 -14q-281 -14 -280 -191zM352 1366l404 281l86 -131l-422 -254z" />
<glyph unicode="&#xe2;" horiz-adv-x="1173" d="M92 299q0 324 428 334l268 6v156q0 133 -69 178q-57 37 -219 37q-63 0 -158 -23q-59 -16 -117 -31l-32 123q152 66 352 66q393 0 393 -299v-625q0 -106 104 -106l-10 -127q-90 -6 -153 22q-84 35 -91 121q-61 -43 -124 -86q-113 -61 -256 -61q-150 0 -233 81.5t-83 233.5 zM145 1376l402 238l395 -238l-63 -106l-332 180l-332 -180zM242 313q0 -201 202 -200q115 -1 344 151v254l-266 -14q-281 -14 -280 -191z" />
<glyph unicode="&#xe3;" horiz-adv-x="1173" d="M92 299q0 324 428 334l268 6v156q0 133 -69 178q-57 37 -219 37q-63 0 -158 -23q-59 -16 -117 -31l-32 123q152 66 352 66q393 0 393 -299v-625q0 -106 104 -106l-10 -127q-90 -6 -153 22q-84 35 -91 121q-61 -43 -124 -86q-113 -61 -256 -61q-150 0 -233 81.5t-83 233.5 zM229 1423q100 102 224 103q57 0 136 -44t116 -44q84 0 153 63l57 -100q-98 -113 -219 -113q-51 0 -132 44t-120 44q-92 0 -163 -61zM242 313q0 -201 202 -200q115 -1 344 151v254l-266 -14q-281 -14 -280 -191z" />
<glyph unicode="&#xe4;" horiz-adv-x="1173" d="M92 299q0 324 428 334l268 6v156q0 133 -69 178q-57 37 -219 37q-63 0 -158 -23q-59 -16 -117 -31l-32 123q152 66 352 66q393 0 393 -299v-625q0 -106 104 -106l-10 -127q-90 -6 -153 22q-84 35 -91 121q-61 -43 -124 -86q-113 -61 -256 -61q-150 0 -233 81.5t-83 233.5 zM199 1466l120 121l121 -121l-121 -123zM242 313q0 -201 202 -200q115 -1 344 151v254l-266 -14q-281 -14 -280 -191zM641 1466l121 121l123 -121l-123 -123z" />
<glyph unicode="&#xe5;" horiz-adv-x="1173" d="M92 299q0 324 428 334l268 6v156q0 133 -69 178q-57 37 -219 37q-63 0 -158 -23q-59 -16 -117 -31l-32 123q152 66 352 66q393 0 393 -299v-625q0 -106 104 -106l-10 -127q-90 -6 -153 22q-84 35 -91 121q-61 -43 -124 -86q-113 -61 -256 -61q-150 0 -233 81.5t-83 233.5 zM242 313q0 -201 202 -200q115 -1 344 151v254l-266 -14q-281 -14 -280 -191zM305 1458q0 104 74 168q68 57 166 57q92 0 160 -49q81 -59 81 -172q0 -102 -67.5 -161.5t-169.5 -59.5t-168 51q-76 57 -76 166zM422 1464q0 -55 35 -89t90 -34q123 0 123 119q0 53 -37 87 t-88 34q-123 0 -123 -117z" />
<glyph unicode="&#xe6;" horiz-adv-x="1781" d="M92 299q0 324 428 334l264 6l4 156q4 133 -67 178q-57 37 -221 37q-63 0 -158 -23q-59 -16 -117 -31l-32 123q152 66 352 66q272 0 356 -139q113 139 379 139q399 0 399 -535v-57l-739 -29q6 -244 123 -334q92 -72 295 -71q180 0 274 33l29 -132q-31 -12 -139 -24 q-119 -14 -213 -14q-322 0 -445 188q-258 -186 -456 -186q-150 0 -233 81.5t-83 233.5zM242 313q0 -201 202 -200q113 0 373 166q-31 92 -35 237l-260 -16q-281 -18 -280 -187zM942 645l569 29q0 162 -65.5 256t-190.5 94q-133 0 -219 -84q-106 -102 -94 -295z" />
<glyph unicode="&#xe7;" horiz-adv-x="1034" d="M123 571q0 268 144.5 422t385.5 154q193 -1 299 -64l-61 -122q-117 53 -262 53q-340 0 -340 -449q0 -240 86 -338q94 -109 338 -108q27 0 213 26l22 -125q-147 -39 -254 -38q-311 0 -441 136t-130 453zM494 -399q119 72 118 157q0 51 -47 138h152q43 -70 43 -136 q2 -160 -215 -249z" />
<glyph unicode="&#xe8;" horiz-adv-x="1126" d="M123 539q0 606 498 606q403 0 403 -557v-58h-743q6 -244 125 -337q92 -74 292 -74q180 0 275 33l28 -132q-29 -12 -139 -24q-119 -14 -213 -14q-260 0 -385 118q-141 133 -141 439zM283 651h573q0 176 -66.5 274.5t-193.5 98.5q-129 0 -211 -92q-88 -98 -102 -281z M338 1516l86 131l403 -281l-67 -104z" />
<glyph unicode="&#xe9;" horiz-adv-x="1126" d="M123 539q0 606 498 606q403 0 403 -557v-58h-743q6 -244 125 -337q92 -74 292 -74q180 0 275 33l28 -132q-29 -12 -139 -24q-119 -14 -213 -14q-260 0 -385 118q-141 133 -141 439zM283 651h573q0 176 -66.5 274.5t-193.5 98.5q-129 0 -211 -92q-88 -98 -102 -281z M352 1366l404 281l86 -131l-422 -254z" />
<glyph unicode="&#xea;" horiz-adv-x="1126" d="M123 539q0 606 498 606q403 0 403 -557v-58h-743q6 -244 125 -337q92 -74 292 -74q180 0 275 33l28 -132q-29 -12 -139 -24q-119 -14 -213 -14q-260 0 -385 118q-141 133 -141 439zM201 1376l401 238l395 -238l-63 -106l-332 180l-332 -180zM283 651h573 q0 176 -66.5 274.5t-193.5 98.5q-129 0 -211 -92q-88 -98 -102 -281z" />
<glyph unicode="&#xeb;" horiz-adv-x="1126" d="M123 539q0 606 498 606q403 0 403 -557v-58h-743q6 -244 125 -337q92 -74 292 -74q180 0 275 33l28 -132q-29 -12 -139 -24q-119 -14 -213 -14q-260 0 -385 118q-141 133 -141 439zM240 1466l120 121l121 -121l-121 -123zM283 651h573q0 176 -66.5 274.5t-193.5 98.5 q-129 0 -211 -92q-88 -98 -102 -281zM682 1466l121 121l123 -121l-123 -123z" />
<glyph unicode="&#xec;" horiz-adv-x="677" d="M4 1516l86 131l404 -281l-68 -104zM260 0v1118h158v-1118h-158z" />
<glyph unicode="&#xed;" horiz-adv-x="677" d="M170 1366l403 281l86 -131l-421 -254zM260 0v1118h158v-1118h-158z" />
<glyph unicode="&#xee;" horiz-adv-x="677" d="M-66 1376l402 238l395 -238l-63 -106l-332 180l-332 -180zM256 0v1118h158v-1118h-158z" />
<glyph unicode="&#xef;" horiz-adv-x="677" d="M-2 1466l121 121l121 -121l-121 -123zM260 0v1118h158v-1118h-158zM440 1466l121 121l123 -121l-123 -123z" />
<glyph unicode="&#xf1;" horiz-adv-x="1294" d="M205 0v1118h157v-121q139 88 152 97q109 53 238 53q219 0 299 -141q51 -90 51 -283v-723h-156v690q0 156 -39 225q-53 94 -194 95q-111 0 -351 -150v-860h-157zM340 1423q100 102 223 103q57 0 136 -44t116 -44q84 0 154 63l57 -100q-98 -113 -219 -113q-51 0 -132 44 t-120 44q-92 0 -164 -61z" />
<glyph unicode="&#xf2;" horiz-adv-x="1255" d="M123 547q0 283 145 444q137 156 365 156q500 0 500 -588q0 -283 -150 -438q-139 -145 -369 -146q-231 0 -361 149.5t-130 422.5zM283 557q0 -451 348 -451q338 0 338 453q0 190 -66 307q-88 152 -276 152q-186 0 -275 -150q-70 -121 -69 -311zM358 1516l86 131l404 -281 l-68 -104z" />
<glyph unicode="&#xf3;" horiz-adv-x="1255" d="M123 547q0 283 145 444q137 156 365 156q500 0 500 -588q0 -283 -150 -438q-139 -145 -369 -146q-231 0 -361 149.5t-130 422.5zM283 557q0 -451 348 -451q338 0 338 453q0 190 -66 307q-88 152 -276 152q-186 0 -275 -150q-70 -121 -69 -311zM393 1366l404 281l86 -131 l-422 -254z" />
<glyph unicode="&#xf4;" horiz-adv-x="1255" d="M123 547q0 283 145 444q137 156 365 156q500 0 500 -588q0 -283 -150 -438q-139 -145 -369 -146q-231 0 -361 149.5t-130 422.5zM248 1376l401 238l395 -238l-63 -106l-332 180l-332 -180zM283 557q0 -451 348 -451q338 0 338 453q0 190 -66 307q-88 152 -276 152 q-186 0 -275 -150q-70 -121 -69 -311z" />
<glyph unicode="&#xf5;" horiz-adv-x="1255" d="M123 547q0 283 145 444q137 156 365 156q500 0 500 -588q0 -283 -150 -438q-139 -145 -369 -146q-231 0 -361 149.5t-130 422.5zM283 557q0 -451 348 -451q338 0 338 453q0 190 -66 307q-88 152 -276 152q-186 0 -275 -150q-70 -121 -69 -311zM291 1423q100 102 223 103 q57 0 136 -44t116 -44q84 0 154 63l57 -100q-98 -113 -219 -113q-51 0 -132 44t-120 44q-92 0 -164 -61z" />
<glyph unicode="&#xf6;" horiz-adv-x="1255" d="M123 547q0 283 145 444q137 156 365 156q500 0 500 -588q0 -283 -150 -438q-139 -145 -369 -146q-231 0 -361 149.5t-130 422.5zM283 557q0 -451 348 -451q338 0 338 453q0 190 -66 307q-88 152 -276 152q-186 0 -275 -150q-70 -121 -69 -311zM289 1466l121 121l120 -121 l-120 -123zM731 1466l121 121l123 -121l-123 -123z" />
<glyph unicode="&#xf7;" horiz-adv-x="958" d="M82 653v142h795v-142h-795zM399 332v157h160v-157h-160zM399 961v157h160v-157h-160z" />
<glyph unicode="&#xf8;" horiz-adv-x="1255" d="M86 18l137 160q-90 139 -90 369q0 283 146 444q137 156 364 156q209 0 328 -105l125 146l92 -80l-135 -160q90 -143 90 -389q0 -283 -150 -438q-139 -145 -368 -146q-195 0 -320 107l-127 -145zM293 557q0 -147 41 -252l536 621q-88 92 -233 92q-186 0 -275 -150 q-70 -121 -69 -311zM403 197q86 -90 238 -91q338 0 338 453q0 152 -43 256z" />
<glyph unicode="&#xf9;" horiz-adv-x="1327" d="M205 403v715h155v-682q0 -160 35 -227q49 -96 191 -96q115 0 364 155v850h152v-1118h-152v131q-129 -82 -166 -98q-119 -57 -237 -58q-209 0 -289 144q-53 96 -53 284zM379 1516l86 131l403 -281l-67 -104z" />
<glyph unicode="&#xfa;" horiz-adv-x="1327" d="M205 403v715h155v-682q0 -160 35 -227q49 -96 191 -96q115 0 364 155v850h152v-1118h-152v131q-129 -82 -166 -98q-119 -57 -237 -58q-209 0 -289 144q-53 96 -53 284zM475 1366l404 281l86 -131l-422 -254z" />
<glyph unicode="&#xfb;" horiz-adv-x="1327" d="M205 403v715h155v-682q0 -160 35 -227q49 -96 191 -96q115 0 364 155v850h152v-1118h-152v131q-129 -82 -166 -98q-119 -57 -237 -58q-209 0 -289 144q-53 96 -53 284zM272 1376l402 238l395 -238l-63 -106l-332 180l-332 -180z" />
<glyph unicode="&#xfc;" horiz-adv-x="1327" d="M205 403v715h155v-682q0 -160 35 -227q49 -96 191 -96q115 0 364 155v850h152v-1118h-152v131q-129 -82 -166 -98q-119 -57 -237 -58q-209 0 -289 144q-53 96 -53 284zM309 1466l121 121l121 -121l-121 -123zM752 1466l120 121l123 -121l-123 -123z" />
<glyph unicode="&#xff;" horiz-adv-x="1069" d="M41 1118h172l307 -1003l344 1003h164l-549 -1567h-153l153 449h-73zM199 1466l120 121l121 -121l-121 -123zM641 1466l121 121l123 -121l-123 -123z" />
<glyph unicode="&#x152;" horiz-adv-x="2211" d="M102 727q0 342 205 542.5t541 200.5q242 0 405 -110v88h807v-133h-641v-520h596v-136h-596v-524h690v-135h-856v100q-182 -125 -444 -125q-330 0 -522 211q-184 203 -185 541zM270 729q0 -260 138 -428q147 -184 407 -184q291 0 438 190v830q-147 190 -424 190 q-268 0 -417 -172q-141 -162 -142 -426z" />
<glyph unicode="&#x153;" horiz-adv-x="1970" d="M123 547q0 283 145 444q137 156 365 156q307 0 420 -238q111 236 411 236q403 0 404 -557v-58h-744q6 -244 125 -337q92 -74 293 -74q186 0 275 33l28 -132q-29 -12 -137 -24q-119 -14 -215 -14q-350 0 -453 233q-127 -240 -426 -240q-231 0 -361 149.5t-130 422.5z M283 557q0 -451 348 -451q338 0 338 453q0 190 -66 307q-88 152 -276 152q-186 0 -275 -150q-70 -121 -69 -311zM1126 651h574q0 373 -260 373q-129 0 -211 -92q-88 -98 -103 -281z" />
<glyph unicode="&#x178;" horiz-adv-x="1161" d="M14 1448h185l374 -752l402 752h176l-502 -887v-561h-164v561zM240 1632l120 121l121 -121l-121 -123zM682 1632l121 121l123 -121l-123 -123z" />
<glyph unicode="&#x2000;" horiz-adv-x="900" />
<glyph unicode="&#x2001;" horiz-adv-x="1800" />
<glyph unicode="&#x2002;" horiz-adv-x="900" />
<glyph unicode="&#x2003;" horiz-adv-x="1800" />
<glyph unicode="&#x2004;" horiz-adv-x="600" />
<glyph unicode="&#x2005;" horiz-adv-x="450" />
<glyph unicode="&#x2006;" horiz-adv-x="300" />
<glyph unicode="&#x2007;" horiz-adv-x="300" />
<glyph unicode="&#x2008;" horiz-adv-x="225" />
<glyph unicode="&#x2009;" horiz-adv-x="360" />
<glyph unicode="&#x200a;" horiz-adv-x="100" />
<glyph unicode="&#x2010;" horiz-adv-x="733" d="M61 518v141h611v-141h-611z" />
<glyph unicode="&#x2011;" horiz-adv-x="733" d="M61 518v141h611v-141h-611z" />
<glyph unicode="&#x2012;" horiz-adv-x="733" d="M61 518v141h611v-141h-611z" />
<glyph unicode="&#x2013;" horiz-adv-x="1024" d="M0 518v141h1024v-141h-1024z" />
<glyph unicode="&#x2014;" horiz-adv-x="2170" d="M61 518v141h2048v-141h-2048z" />
<glyph unicode="&#x2018;" horiz-adv-x="335" d="M61 1468v78h160v-190q0 -84 53 -217h-114q-98 178 -99 329z" />
<glyph unicode="&#x2019;" horiz-adv-x="335" d="M61 1139q55 127 56 217v190h157v-78q0 -160 -98 -329h-115z" />
<glyph unicode="&#x201a;" horiz-adv-x="567" d="M150 -250q53 137 53 217v193h159v-80q0 -152 -98 -330h-114z" />
<glyph unicode="&#x201c;" horiz-adv-x="643" d="M61 1468v78h160v-190q0 -84 53 -217h-114q-98 178 -99 329zM369 1468v78h159v-190q1 -84 54 -217h-115q-98 178 -98 329z" />
<glyph unicode="&#x201d;" horiz-adv-x="643" d="M61 1139q55 127 56 217v190h157v-78q0 -160 -98 -329h-115zM369 1139q55 127 55 217v190h158v-78q0 -160 -99 -329h-114z" />
<glyph unicode="&#x201e;" horiz-adv-x="643" d="M61 -250q55 131 56 217v193h157v-80q0 -160 -98 -330h-115zM369 -250q55 131 55 217v193h158v-80q0 -160 -99 -330h-114z" />
<glyph unicode="&#x2022;" horiz-adv-x="1003" d="M205 721q0 123 87 210t210 87t210 -87t87 -210t-87 -209t-210 -86t-210 86t-87 209z" />
<glyph unicode="&#x2026;" horiz-adv-x="2048" d="M213 0v188h188v-188h-188zM932 0v188h188v-188h-188zM1655 0v188h188v-188h-188z" />
<glyph unicode="&#x202f;" horiz-adv-x="360" />
<glyph unicode="&#x2039;" horiz-adv-x="526" d="M88 557l217 451l125 -45l-178 -406l176 -399l-123 -52z" />
<glyph unicode="&#x203a;" horiz-adv-x="526" d="M88 963l125 45l217 -451l-217 -451l-123 54l176 397z" />
<glyph unicode="&#x205f;" horiz-adv-x="450" />
<glyph unicode="&#x2122;" horiz-adv-x="1660" d="M41 1341v109h600v-109h-240v-618h-120v618h-240zM684 723v727h162l215 -600l242 600h153v-727h-121v520l-202 -520h-154l-176 504v-504h-119z" />
<glyph unicode="&#xe000;" horiz-adv-x="1116" d="M0 0v1116h1116v-1116h-1116z" />
</font>
</defs>
</svg>
