<?xml version="1.0" encoding="utf-8"?>
<!-- Generator: Adobe Illustrator 16.0.0, SVG Export Plug-In . SVG Version: 6.00 Build 0)  -->
<!DOCTYPE svg PUBLIC "-//W3C//DTD SVG 1.1//EN" "http://www.w3.org/Graphics/SVG/1.1/DTD/svg11.dtd">
<svg version="1.1" xmlns="http://www.w3.org/2000/svg" xmlns:xlink="http://www.w3.org/1999/xlink" x="0px" y="0px" width="200px"
	 height="200px" viewBox="0 0 200 200" enable-background="new 0 0 200 200" xml:space="preserve">
<g id="Layer_1">
	<g id="XMLID_1_">
		<g>
			<polygon fill="#5396D1" points="175,56.698 175,143.303 100,186.605 25,143.303 			"/>
			<polygon fill="#F05051" points="175,56.698 25,143.303 25,56.698 100,13.395 			"/>
		</g>
		<g>
			<polygon fill="none" stroke="#FFFFFF" stroke-width="2" stroke-miterlimit="10" points="25,143.303 25,56.698 100,13.395 
				175,56.698 175,143.303 100,186.605 			"/>
		</g>
	</g>
</g>
<g id="Layer_2">
	<g>
		<rect x="79.458" y="76.523" fill="#FFFFFF" stroke="#FFFFFF" stroke-miterlimit="10" width="5.868" height="46.953"/>
		<rect x="79.458" y="117.606" fill="#FFFFFF" stroke="#FFFFFF" stroke-miterlimit="10" width="41.083" height="5.87"/>
		<rect x="115.406" y="76.523" fill="#FFFFFF" stroke="#FFFFFF" stroke-miterlimit="10" width="5.135" height="46.953"/>
		<rect x="79.458" y="76.523" fill="#FFFFFF" stroke="#FFFFFF" stroke-miterlimit="10" width="36.682" height="5.87"/>
		<rect x="67.72" y="82.394" fill="#FFFFFF" stroke="#FFFFFF" stroke-miterlimit="10" width="12.285" height="5.869"/>
		<rect x="67.72" y="76.523" fill="#FFFFFF" stroke="#FFFFFF" stroke-miterlimit="10" width="5.87" height="6.417"/>
		<rect x="118.9" y="82.394" fill="#FFFFFF" stroke="#FFFFFF" stroke-miterlimit="10" width="13.379" height="5.869"/>
		<rect x="126.41" y="87.527" fill="#FFFFFF" stroke="#FFFFFF" stroke-miterlimit="10" width="5.869" height="6.603"/>
	</g>
</g>
</svg>
